<?xml version="1.0" encoding="UTF-8" standalone="no"?>
<svg
   xmlns:dc="http://purl.org/dc/elements/1.1/"
   xmlns:cc="http://creativecommons.org/ns#"
   xmlns:rdf="http://www.w3.org/1999/02/22-rdf-syntax-ns#"
   xmlns:svg="http://www.w3.org/2000/svg"
   xmlns="http://www.w3.org/2000/svg"
   viewBox="0 0 237.35983 237.09483"
   height="237.09483"
   width="237.35983"
   xml:space="preserve"
   version="1.1"
   id="svg2"><metadata
     id="metadata8"><rdf:RDF><cc:Work
         rdf:about=""><dc:format>image/svg+xml</dc:format><dc:type
           rdf:resource="http://purl.org/dc/dcmitype/StillImage" /><dc:title></dc:title></cc:Work></rdf:RDF></metadata><defs
     id="defs6" /><g
     transform="matrix(1.25,0,0,-1.25,-64.88875,284.18085)"
     id="g10"><g
       transform="scale(0.1,0.1)"
       id="g12"><g
         id="g4234"><path
           d="m 1279.92,1617.2781 c -13.2,0 -26.47,1.53 -39.45,4.54 -49.71,11.48 -91.72,44.03 -115.28,89.32 l -0.37,0.71 -0.29,0.75 c -9.46,24.71 -4.29,42.86 15.83,55.5 l 0.72,0.44 c 6.66,3.92 16.97,8.6 28.26,8.6 3.68,0 7.26,-0.5 10.62,-1.49 8.81,-2.6 15.37,-8.75 21.13,-15.02 0.9,-0.97 2.1,-2.32 3.56,-3.96 9.12,-10.28 36.89,-41.57 56.03,-45.34 6.16,-1.21 12.39,-1.82 18.52,-1.82 19.79,0 37.91,6.18 52.41,17.86 l 0.91,0.74 1.03,0.58 c 5.57,3.14 13.02,5.01 19.93,5.01 12.12,0 21.4,-5.8 24.91,-15.55 l 0.35,-0.89 c 1.99,-5.37 2.99,-10.56 2.99,-15.44 0,-15.08 -2.9,-29.91 -8.86,-45.35 l -0.28,-0.72 -0.36,-0.69 c -6.93,-13.35 -19.99,-20.96 -21.46,-21.78 l -0.28,-0.15 c -17.34,-9.23 -34.17,-14.16 -50.02,-14.65 -0.23,-0.01 -0.45,-0.02 -0.67,-0.06 -6.56,-0.75 -13.26,-1.14 -19.88,-1.14"
           style="fill:#9ed51e;fill-opacity:1;fill-rule:nonzero;stroke:none"
           id="path82" /><path
           d="m 1263.51,864.4681 c -12.42,0 -24.18,4.07 -34.02,11.76 -11.62,9.09 -19.01,22.18 -20.8,36.86 -1.79,14.68 2.23,29.16 11.32,40.78 0.18,0.22 0.4,0.57 0.62,0.98 l 0.24,0.43 c 9.68,16.34 3.57,26.37 -6.85,39.8 -2.03,2.61 -4.08,5.26 -6.14,8.2 -8.84,12.69 -13.28,23.61 -13.99,34.37 -1.68,25.48 6.54,49.82 23.15,68.53 13.59,15.31 31.88,26.1 54.35,32.08 l 28.65,7.63 -3.19,-7.17 c 5.04,-1.69 9.71,-4.67 13.97,-8.93 0.32,-0.33 0.55,-0.49 0.68,-0.58 l 1.24,-0.85 1.03,-1.09 c 20.13,-21.31 43.46,-41.75 69.34,-60.78 l 0.42,-0.32 c 7.66,-6.08 8.66,-13.23 8.57,-16.96 -0.14,-6.32 -3.38,-12.21 -8.87,-16.18 l -0.36,-0.25 -9.7,-6.13 -0.55,-0.22 c -3.69,-2.18 -7.81,-3.43 -12.24,-3.69 l 2.3,-14.67 -28.74,23.49 c -2.06,1.69 -3.75,3 -5.33,4.11 -5.18,3.67 -11.4,6.69 -15.27,8.4 l -4.15,-14.51 c 2.17,-0.99 6.55,-3.23 12.17,-7.42 14,-10.45 24.1,-25.41 28.73,-42.15 l 1.4,0 1.07,-13.37 c 3.45,-32.18 -44.27,-79.68 -44.76,-80.16 -0.22,-0.22 -0.47,-0.5 -0.67,-0.75 -9.09,-11.63 -22.17,-19.03 -36.84,-20.83 -2.25,-0.27 -4.53,-0.41 -6.78,-0.41"
           style="fill:#9ed51e;fill-opacity:1;fill-rule:nonzero;stroke:none"
           id="path84" /><path
           d="m 1299.02,1880.1681 c 0.02,-0.01 0.03,-0.02 0.06,-0.02 l -0.06,0.02 z m 259.35,-621.89 0,0 z m -17.8,-15.35 0,0 z m 105.69,-46.01 c -0.01,-0.03 -0.03,-0.06 -0.06,-0.08 0.03,0.02 0.05,0.05 0.06,0.08 z m -236.93,-519 -2.16,0.06 c -9.55,0.22 -17.34,6.14 -19.38,14.73 -1.97,8.3 2,16.97 9.68,21.08 l 1.11,0.54 c 4.78,2.25 10.45,4.34 15.93,6.37 l 11.66,4.08 c 0.29,0.08 0.58,0.17 0.86,0.27 l 5.46,1.87 c 10.04,3.48 19.79,7.31 29.05,11.39 21.6,9.41 40.08,20.25 54.97,32.24 8.11,6.52 15.23,13.46 21.17,20.64 5.97,7.2 11,14.93 14.95,22.98 6.44,13.16 10.18,24.95 11.49,36.41 l 0,9.39 c 0,93.97 -101.25,167.41 -161.75,211.29 -2.96,2.14 -5.8,4.2 -8.53,6.19 -32.28,23.56 -58.98,47.74 -81.61,73.95 l -1.14,1.31 -0.78,1.54 c -0.53,1.06 -1.31,1.99 -2.25,2.69 l -1.39,1.04 -1.1,1.34 c -4.64,5.66 -9.03,11.31 -13.05,16.8 -40.34,55.19 -60.79,115.49 -60.79,179.26 0,85.45 46.31,142.79 91.09,198.24 38.12,47.2 74.12,91.78 74.12,148.2 0,29.74 -26.28,57.97 -54.09,87.85 -0.33,0.35 -0.62,0.68 -0.89,1.01 l -0.45,0.59 c -7.82,10.82 -5.67,23.6 -4.75,29.06 l 0.38,1.66 c 2.15,7.29 -0.27,30.59 -9.09,42.1 -6.02,7.87 -17.98,13.46 -27.16,15.52 l -1.58,0.45 c -17.23,5.02 -24.19,15.4 -26.81,21.17 l -0.48,1.05 -0.3,1.13 c -3.59,13.35 -5.02,28.94 -5.16,39.08 l -0.01,0.97 0.12,0.95 c 0.8,6.48 4.65,18.06 21.56,22.94 l 0.98,0.25 c 10.58,2.25 22.57,3.49 33.76,3.49 l 0.41,0 c 3.67,-0.04 7.26,-0.19 11.17,-0.47 l 0.98,-0.1 c 0.53,-0.07 1.12,-0.13 1.77,-0.16 1.2,-0.07 2.28,-0.16 3.33,-0.28 l 0.61,-0.07 c 8.07,-1.01 13.66,-3.78 17.7,-7.09 l 2.64,2.92 9.12,-19.14 c 3.87,-8.21 11.55,-18.31 20.01,-22.39 10.32,-4.97 29.15,-4.75 39.63,-1.44 l 0.88,0.28 0.91,0.16 c 7.99,1.42 28.41,3.49 45.52,-7.79 0.23,-0.15 0.4,-0.25 0.57,-0.34 l 1.49,-0.88 c 32.96,-22.37 60.45,-47.85 70.58,-61.45 1.06,-1.45 2.24,-3.18 3.61,-5.29 3.24,-5.01 7.21,-11.74 10.4,-17.23 l 15.29,9.09 c 0.09,0.05 0.18,0.1 0.25,0.15 -0.02,5.87 1.34,16.37 9.8,25.9 l 0.67,1.19 1.46,1.43 c 13.21,12.95 22.11,30.9 25.06,50.55 2.89,19.3 -17.26,55.98 -23.88,68.03 -1.05,1.9 -1.91,3.48 -2.53,4.66 -3.69,7.05 -7.58,15.36 -7.03,24.96 0.91,16.18 12.78,28.38 19.76,34.22 l 0.65,0.53 c 18.66,14.7 37.49,13.47 57.59,-3.75 l 1.16,-1.12 c 34.74,-37.41 51.27,-87.93 45.38,-138.6 -2.32,-19.99 -7.96,-39.18 -16.77,-57.04 -0.08,-0.18 -0.17,-0.37 -0.25,-0.56 -8.09,-20.64 -29.4,-50.88 -84.94,-77.95 l -0.83,-0.4 -1.16,-0.39 c -1.86,-0.89 -11.39,-5.77 -10.1,-11.46 19.61,-86.91 -16.55,-168.54 -51.51,-247.49 l -1.14,-2.57 c -24.41,-55.13 -47.45,-107.16 -47.45,-154.33 0,-44.42 24.37,-80.74 49.01,-110.57 l 11.5,9.96 c -3.2,3.89 -6.26,7.76 -9.12,11.52 l -0.8,1.04 -0.59,1.18 c -4.76,9.5 -4.01,20.05 -3.46,24.14 l 0.32,1.67 c 7.34,28.51 21.8,51.28 41.83,65.86 20.22,14.72 45.25,20.55 70.45,16.41 10.64,-1.75 21.07,-7.22 32.83,-17.23 2.86,-2.45 5.49,-4.93 7.59,-6.94 12.35,-11.66 21.74,-18.71 38.96,-10.66 l 0.35,0.17 c 0.48,0.2 0.86,0.39 1.11,0.55 25.73,16.38 59.99,8.78 76.37,-16.94 7.93,-12.47 10.54,-27.28 7.34,-41.71 -3.21,-14.41 -11.83,-26.72 -24.29,-34.66 -0.26,-0.16 -0.56,-0.38 -0.84,-0.61 -0.46,-0.39 -45.28,-37.44 -77.08,-37.44 -2.46,0 -4.84,0.21 -7.11,0.69 l -0.34,0.06 -11.56,2.17 0,1.12 c -16.7,6.14 -31.01,17.81 -40.23,33.06 -3.62,5.99 -5.44,10.56 -6.21,12.82 l -14.85,-2.72 c 1.33,-4.02 3.73,-10.49 6.87,-15.99 1,-1.73 2.17,-3.6 3.58,-5.7 l 20.81,-30.9 -14.59,3.75 c -0.69,-4.36 -2.31,-8.4 -4.88,-11.91 l -0.27,-0.53 -21.76,-28.02 c -4.38,-5.5 -3.34,-10.36 -1.72,-13.49 l 0.15,-0.29 0.85,-1 c 62.63,-73.69 74.7,-126.31 78.21,-163.92 0.81,-8.6 1.27,-17.4 1.37,-26.14 l 0,-0.35 -0.01,-0.35 -1.16,-30.93 0.65,-0.07 -1.39,-14.05 c -0.02,-0.25 -0.04,-0.51 -0.05,-0.78 l -0.17,-1.56 -4,-24.69 c -0.3,-1.74 -0.6,-3.48 -0.85,-4.59 -0.02,-0.1 -0.05,-0.22 -0.07,-0.34 l -2.36,-10.87 c -3.71,-15.7 -8.08,-29.91 -13.37,-43.47 -5.71,-14.76 -12.9,-29.1 -21.37,-42.58 -8.76,-13.92 -18.89,-26.69 -30.12,-37.96 -11.01,-11.09 -23.36,-21.01 -36.67,-29.46 -12.13,-7.73 -25.39,-14.47 -39.4,-20.02 -23.45,-9.25 -48.75,-15.47 -77.37,-19.01 -11.82,-1.49 -23.98,-2.51 -36.12,-3.01 l -3.24,-0.16 -0.64,0.03 c -0.33,0.02 -0.68,0.02 -1.04,-0.01 l -11.4,-0.59 c -1.07,-0.08 -2.13,-0.14 -3.19,-0.21 -2.94,-0.2 -6.26,-0.41 -9.73,-0.89 l -1.18,-0.34"
           style="fill:#9ed51e;fill-opacity:1;fill-rule:nonzero;stroke:none"
           id="path86" /><path
           d="m 1462.44,1165.3781 c -155.82,128.31 -144.36,258.93 -41.25,380.37 103.11,121.45 41.25,254.35 -6.87,300.17 -26.91,25.63 -91.61,76.86 -139.66,114.18 -4.49,-4.11 -7.23,-9.45 -7.99,-15.7 l -0.12,-0.96 0.01,-0.95 c 0.14,-10.14 1.57,-25.73 5.16,-39.08 l 0.3,-1.13 0.48,-1.05 c 2.62,-5.77 9.58,-16.15 26.81,-21.17 l 0.91,-0.3 0.67,-0.15 c 9.18,-2.06 21.14,-7.65 27.16,-15.52 8.82,-11.51 11.24,-34.81 9.09,-42.1 l -0.24,-0.82 -0.14,-0.84 c -0.92,-5.46 -3.07,-18.24 4.75,-29.06 l 0.23,-0.31 0.24,-0.29 c 0.27,-0.34 0.55,-0.66 0.87,-1 27.81,-29.88 54.09,-58.11 54.09,-87.85 0,-56.42 -36,-101 -74.12,-148.21 -44.78,-55.44 -91.09,-112.78 -91.09,-198.23 0,-63.77 20.45,-124.08 60.79,-179.26 4.02,-5.49 8.41,-11.14 13.05,-16.8 l 1.1,-1.34 1.39,-1.04 c 0.94,-0.7 1.72,-1.63 2.25,-2.69 l 0.78,-1.54 1.14,-1.31 c 22.63,-26.21 49.33,-50.39 81.61,-73.95 2.7,-1.97 5.52,-4.02 8.53,-6.19 60.5,-43.88 161.75,-117.32 161.75,-211.29 l 0,-9.39 c -1.31,-11.46 -5.05,-23.25 -11.49,-36.4 -3.95,-8.06 -8.98,-15.79 -14.95,-22.99 -5.94,-7.18 -13.06,-14.12 -21.17,-20.64 -14.89,-11.99 -33.36,-22.83 -54.97,-32.24 -9.12,-4.03 -18.7,-7.79 -28.58,-11.22 l -5.93,-2.04 c -0.28,-0.1 -0.57,-0.19 -0.86,-0.27 l -0.55,-0.14 -11.11,-3.94 c -5.48,-2.03 -11.15,-4.12 -15.93,-6.37 l -0.7,-0.32 -0.47,-0.24 c -1.02,-0.56 -1.98,-1.19 -2.94,-1.97 l -23.8,-18.95 32.62,7.88 c 327.85,73.36 198.11,350.2 59.15,464.65"
           style="fill:#57bf36;fill-opacity:1;fill-rule:nonzero;stroke:none"
           id="path88" /><path
           d="m 1399.14,1058.4181 c -26.78,19.68 -59.57,53.64 -80.27,75.54 -0.84,0.58 -3.77,3.78 -4.72,4.73 -9.25,9.25 -18.32,13.43 -26.76,11.8 l -43.28,-9.44 c -19.56,-5.21 -47.3,-67.86 -59.02,-81.06 -10.74,-12.11 1.57,-4.72 23.33,-6.24 24.38,-0.84 57.24,-4.71 88.04,-17.18 l 20.84,-7.27 c 1.74,6.06 -8.25,11.69 -2.36,9.44 0,0 1.24,5.34 11.02,-1.57 2.12,-1.5 10.59,-3.08 12.58,-4.73 l 0,0 c 5.39,-3.78 27.07,-15.06 34.63,-10.23 0.34,0.22 7.58,2.25 7.87,2.37 l 11.02,6.29 c 3.02,2.18 12.27,23.43 7.08,27.55"
           style="fill:#57bf36;fill-opacity:1;fill-rule:nonzero;stroke:none"
           id="path90" /><path
           d="m 1368.45,1738.3481 c -0.02,0.05 0.02,-0.04 0,0 -0.06,0.17 -5.44,-4.09 -5.51,-3.93 -3.02,8.86 -64.09,-5.66 -70.83,-9.44 -11.97,-9.67 4.73,-14.96 7.6,-27.57 8.5,-15.55 14.32,-36.76 9.48,-63.88 -4.48,-11.65 -12.28,-28.49 -1.33,-22.66 0,0 55.42,23.86 60.59,33.84 5.03,13 11.02,53.71 11.02,67.68 0,3.38 -9.59,22.19 -11.02,25.96"
           style="fill:#57bf36;fill-opacity:1;fill-rule:nonzero;stroke:none"
           id="path92" /><path
           d="m 1555.19,1817.7981 c -0.1,0.18 -0.51,0.39 -0.32,0.55 10.32,8.14 24.55,12.97 20.55,19.16 -1.14,1.77 -29.01,27.92 -29.9,29.12 -1.1,1.46 -6.3,-8.66 -10.82,-17.12 -63.72,-69.61 -117.95,-85.26 -148.75,-87.5 -25.5,-7.39 2.18,-36.25 20.13,-34.12 37.75,6.77 90.72,28.68 149.11,89.91"
           style="fill:#ffffff;fill-opacity:1;fill-rule:nonzero;stroke:none"
           id="path94" /><path
           d="m 1466.78,1532.7881 c 26.14,0 51.46,4.86 74.31,11.78 35.12,7.27 47.71,60 18.67,45.63 -108.33,-45.45 -166.27,-4.81 -183.23,10.83 -14.38,15.34 -46.64,-12.98 -21.53,-29.74 10.07,-8.57 26.37,-19.9 49.13,-28.03 20.82,-7.44 41.98,-10.47 62.65,-10.47"
           style="fill:#ffffff;fill-opacity:1;fill-rule:nonzero;stroke:none"
           id="path96" /><path
           d="m 1349.33,1320.1381 c 36.64,0 80.91,8.3 130.31,33.82 0,0.47 -0.45,1.21 -0.02,1.42 28.12,13.88 35.2,65.83 5.24,43.61 -61.45,-37.83 -121.72,-50.42 -179.27,-37.37 -25.62,5.82 -45.32,15.75 -57.61,23.28 -23.54,15.84 -21.18,-25.07 -21.18,-35.31 0,-3.77 6.3,-2.36 19.32,-5.51 13.24,-6.54 29.77,-13.12 49.26,-17.72 15.3,-3.63 33.42,-6.22 53.95,-6.22"
           style="fill:#ffffff;fill-opacity:1;fill-rule:nonzero;stroke:none"
           id="path98" /><path
           d="m 1543.11,1229.0481 c 10.28,21.39 -8.52,39.47 -10.97,42.63 -6.21,7.41 -7.08,2.37 -15.64,-16.11 -77.02,-124.15 -171.12,-112.81 -175.19,-112.25 l -30.31,-3.06 c 11.03,-11.18 31.48,-38.56 65.98,-31.84 41.92,6.75 108.71,32.27 166.13,120.63"
           style="fill:#ffffff;fill-opacity:1;fill-rule:nonzero;stroke:none"
           id="path100" /><path
           d="m 1521.96,987.8081 c -38.61,-1.01 2.31,-41.93 27.35,-36.08 7.34,0.58 15.06,1.54 22.99,3.08 48.08,9.3 84.9,35.06 108.02,75.15 13.15,19.01 -5.03,62.34 -11.25,74.89 l -9.66,-33.03 c -28.48,-78.86 -100.03,-86.06 -137.45,-84.01"
           style="fill:#ffffff;fill-opacity:1;fill-rule:nonzero;stroke:none"
           id="path102" /><path
           d="m 1545.25,778.3481 c -5.82,-6.55 -12.44,-12.87 -19.85,-18.83 -2.39,-1.93 -4.88,-3.81 -7.44,-5.67 8.86,-11.03 22.55,-24.72 40.99,-33.88 9.17,4.2 17.93,8.9 26.08,14.11 6.08,3.86 11.92,8.05 17.51,12.51 -28.1,-0.26 -47.57,19.09 -57.29,31.76"
           style="fill:#ffffff;fill-opacity:1;fill-rule:nonzero;stroke:none"
           id="path104" /><path
           d="m 1803.64,1286.8981 c -2.39,-10.72 -8.8,-19.88 -18.07,-25.78 -0.79,-0.5 -1.55,-1.06 -2.27,-1.66 -19.02,-15.86 -55.18,-37.58 -72.44,-33.74 -0.14,0.03 -0.3,0.05 -0.44,0.08 l 0,0.02 c -0.39,0.07 -0.78,0.16 -1.14,0.24 -17.53,3.89 -32.2,14.72 -41.14,29.49 -3.97,6.57 -5.14,10.72 -5.14,10.72 -1.71,6.07 -8.18,10.1 -14.37,8.96 l -20.29,-3.72 c -6.19,-1.14 -9.9,-7.04 -8.23,-13.11 0,0 3.48,-12.69 9.42,-23.09 1.3,-2.26 2.68,-4.44 4.13,-6.58 l -0.16,0.03 c 3.24,-5.73 7.09,-16.12 1.55,-23.18 -0.24,-0.31 -0.42,-0.6 -0.56,-0.88 l -20.95,-27 c -8.11,-10.15 -7.02,-21.15 -3.12,-28.68 l -0.34,-0.29 c 0.53,-0.61 1.04,-1.22 1.56,-1.83 0.42,-0.66 0.86,-1.28 1.31,-1.86 l 0.25,0.03 c 34.03,-40.04 68.71,-89.81 74.91,-156.07 0.76,-8.17 1.21,-16.57 1.31,-24.98 l -1.5,-39.96 -0.38,-4.18 0.04,-0.01 c -0.05,-0.5 -0.09,-1.01 -0.11,-1.52 l -4.01,-24.69 c -0.23,-1.38 -0.47,-2.81 -0.68,-3.72 -0.02,-0.11 -0.04,-0.21 -0.07,-0.29 l -2.31,-10.78 c -3.57,-15.03 -7.74,-28.62 -12.8,-41.6 -5.4,-13.95 -12.18,-27.48 -20.17,-40.18 -8.19,-13.02 -17.65,-24.95 -28.16,-35.5 -10.28,-10.35 -21.79,-19.6 -34.24,-27.51 -11.36,-7.24 -23.83,-13.58 -37.02,-18.8 -22.3,-8.81 -46.46,-14.73 -73.87,-18.12 -11.41,-1.44 -23.13,-2.42 -34.98,-2.91 l -2.72,-0.14 c -0.81,0.04 -1.64,0.03 -2.47,-0.02 l -11.03,-0.56 c -0.18,-0.01 -0.35,-0.03 -0.53,-0.04 -1.02,-0.07 -2.04,-0.14 -3.06,-0.2 -3.49,-0.24 -7.43,-0.49 -11.74,-1.13 -0.03,-0.01 -0.07,-0.01 -0.1,-0.02 -6.96,0.16 -7.7,6.84 -3.36,9.17 0.11,0.04 0.23,0.09 0.34,0.15 4.28,2.01 9.46,3.93 14.93,5.95 l 10.39,3.68 c 0.62,0.17 1.23,0.35 1.83,0.56 l 0,-0.02 4.38,1.53 c 10.79,3.7 21.34,7.82 31.24,12.19 22.71,9.89 42.27,21.39 58.14,34.17 8.84,7.11 16.65,14.73 23.19,22.65 6.67,8.03 12.3,16.69 16.76,25.76 9.2,18.81 13.48,35.35 13.48,52.04 l -0.54,0 c 0,101.19 -104.92,177.29 -167.61,222.76 -2.94,2.13 -5.78,4.19 -8.49,6.17 -31.26,22.8 -57.39,46.45 -79.25,71.75 -1.53,3.04 -3.73,5.64 -6.41,7.64 -4.37,5.33 -8.57,10.73 -12.58,16.2 -38.52,52.7 -58.05,110.18 -58.05,170.89 0,80.44 44.71,135.81 87.94,189.33 39.73,49.21 77.26,95.68 77.26,157.11 0,35.3 -28.11,65.51 -57.88,97.5 -0.08,0.08 -0.16,0.16 -0.23,0.25 -4.03,5.57 -3.23,12.64 -2.26,18.42 3.43,11.62 0.1,39.66 -11.44,54.72 -8.34,10.9 -23.31,18.03 -35.3,20.73 -0.15,0.04 -0.27,0.09 -0.43,0.14 -10.87,3.11 -16.12,9.01 -18.16,13.5 -3.06,11.38 -4.53,25.52 -4.67,35.6 0.54,4.43 3.07,8.65 11.43,11.07 8.41,1.78 19.46,3.18 30.81,3.18 0.14,0 0.28,0 0.41,0 3.4,-0.04 6.8,-0.2 10.18,-0.44 0.89,-0.12 1.87,-0.22 2.98,-0.28 0.91,-0.05 1.76,-0.11 2.57,-0.21 0.06,-0.01 0.11,-0.01 0.16,-0.02 12.8,-1.52 14.26,-8.58 18.55,-15.39 l 0.07,0.08 c 5.11,-10.87 14.78,-23.39 26.68,-29.12 14.59,-7.05 37.34,-6.2 50.04,-2.19 9.73,1.73 24.14,1.66 35.24,-5.66 0.67,-0.45 1.3,-0.81 1.9,-1.12 34.23,-23.22 59.17,-47.44 67.17,-58.19 0.89,-1.2 1.93,-2.74 3.07,-4.51 4.01,-6.19 9.18,-15.13 12.88,-21.53 1.68,-2.91 1.68,-2.91 1.68,-2.91 1.49,-2.52 7.13,-1.95 12.54,1.27 l 17.73,10.53 c 5.42,3.22 8.71,7.79 7.32,10.18 0,0 -1.67,10.14 6.35,18.93 0.51,0.56 0.9,1.1 1.19,1.63 15.67,15.35 25.77,35.98 29.15,58.55 4.03,26.89 -22.32,70.8 -27.87,81.38 -3.38,6.47 -5.75,12.03 -5.43,17.57 0.61,10.85 9.48,19.79 14.7,24.15 l 0.34,0.28 c 11.15,8.78 22.18,11.56 39.6,-3.38 31.93,-34.38 47.11,-80.72 41.69,-127.32 -2.13,-18.38 -7.31,-36.02 -15.41,-52.41 -0.26,-0.56 -0.52,-1.11 -0.74,-1.68 -13.54,-34.49 -53.58,-58.48 -77.94,-70.36 -0.53,-0.18 -1.05,-0.36 -1.58,-0.6 -12.43,-5.79 -20.78,-15.76 -18.13,-27.5 18.79,-83.26 -17.13,-162.95 -51.78,-241.21 -25.02,-56.52 -48.66,-109.89 -48.66,-160.07 0,-48.55 25.53,-87.73 54.79,-122.65 4.24,-5.47 10.5,-4.39 15.17,-0.78 l 17.15,14.86 c 5.74,4.51 5.36,8.7 1.46,13.38 -4.03,4.82 -7.97,9.71 -11.75,14.68 -2.4,4.79 -2.71,11.22 -2.08,15.92 6.52,25.33 18.94,45.19 36.44,57.94 17.13,12.47 38.37,17.41 59.82,13.88 7.99,-1.31 16.24,-5.77 25.94,-14.03 2.49,-2.13 4.81,-4.32 7.05,-6.44 10.97,-10.36 27.48,-25.93 54.69,-13.21 1.05,0.46 2.08,0.97 3.08,1.61 19.13,12.18 44.61,6.52 56.81,-12.61 5.9,-9.28 7.83,-20.29 5.45,-31.03 z m -428.7,-242.38 -8.19,-5.17 c -0.29,-0.12 -0.59,-0.26 -0.92,-0.47 -7.57,-4.83 -17.53,0 -22.92,3.79 l 0.02,-0.16 c -1.99,1.64 -4.03,3.24 -6.16,4.74 -9.77,6.92 -22.06,11.61 -22.06,11.61 -5.89,2.25 -12.12,-0.86 -13.86,-6.92 l -5.66,-19.84 c -1.74,-6.05 1.65,-12.88 7.52,-15.16 0,0 4.03,-1.57 10.18,-6.15 13.83,-10.33 23.19,-25.99 25.37,-43.82 0.05,-0.36 0.09,-0.75 0.13,-1.15 l 0.02,0 c 0.01,-0.14 0.01,-0.3 0.03,-0.45 2.15,-17.55 -22.96,-51.43 -40.59,-68.83 -0.66,-0.65 -1.3,-1.37 -1.87,-2.1 -6.77,-8.66 -16.51,-14.16 -27.42,-15.49 -10.9,-1.33 -21.68,1.66 -30.34,8.44 -17.87,13.97 -21.03,39.88 -7.05,57.75 0.72,0.94 1.34,1.91 1.89,2.92 15.29,25.84 1.4,43.78 -7.85,55.7 -1.89,2.44 -3.85,4.97 -5.72,7.64 -7.29,10.46 -10.94,19.1 -11.46,27.18 -1.44,21.69 5.53,42.34 19.61,58.2 11.72,13.2 27.83,22.59 47.39,27.8 l -0.07,-0.18 c 8.43,1.64 16.59,4.63 25.84,-4.62 0.94,-0.95 1.83,-1.66 2.67,-2.24 20.7,-21.9 44.47,-42.77 71.25,-62.46 5.19,-4.12 3.24,-8.38 0.22,-10.56 z m -74.92,588.12 c -0.6,-0.02 -1.21,-0.06 -1.82,-0.14 -18.17,-2.1 -36.51,-1.06 -54.53,3.12 -45.72,10.55 -84.27,40.43 -105.91,82.06 -8.21,21.42 -1.89,30.87 10.13,38.43 l 0.38,0.22 c 5.86,3.46 17.26,8.8 27.7,5.73 5.3,-1.57 9.76,-5.66 14.7,-11.02 8.1,-8.78 40.61,-48.36 67.28,-53.6 29.45,-5.8 59.64,0.44 82.55,18.91 6.74,3.79 21.59,5.72 24.62,-3.14 0.06,-0.17 0.13,-0.33 0.19,-0.5 0.02,-0.05 0.03,-0.08 0.05,-0.13 1.43,-3.77 2.21,-7.37 2.21,-10.76 0,-13.96 -2.89,-27.23 -7.92,-40.24 -5.17,-9.97 -15.82,-15.95 -15.82,-15.95 -13.72,-7.3 -28.68,-12.52 -43.81,-12.99 z m 573.71,-312.36 c -0.92,3.53 -4.12,6 -7.77,6 -0.01,0 -0.02,0 -0.03,0 l -12.24,-0.05 c -8.22,0.08 -14.61,5.77 -20.1,12.47 -6.25,7.61 -5.69,17.47 -1.51,27.71 0.05,0.13 0.06,0.26 0.1,0.39 l 2.31,7.35 c 1.12,3.57 -0.36,7.43 -3.6,9.33 -3.21,1.89 -7.32,1.3 -9.88,-1.42 l -5.8,-6.14 c -6.93,-5.49 -17.85,-6.12 -25.87,-2.49 -7.08,3.2 -9.38,11.95 -9.77,17.29 l -0.15,8.18 c -0.06,3.82 -2.79,7.06 -6.53,7.76 -3.75,0.69 -7.47,-1.33 -8.91,-4.86 l -4.72,-11.56 c -0.61,-1.25 -2.67,-3.67 -5.35,-6.01 -19.95,-17.1 -37.52,-11.95 -42.5,-8.47 -1.99,1.86 -4.17,3.86 -6.61,5.94 -10.07,8.58 -25.91,20.39 -47.13,23.87 -33.02,5.42 -65.87,-2.26 -92.49,-21.64 -10.5,-7.64 -22.42,-18.88 -32.83,-35.04 -0.14,-0.15 -0.29,-0.29 -0.41,-0.47 -2.59,-3.8 -7.16,-3.66 -8.46,-0.39 -0.2,2.44 -0.33,4.88 -0.33,7.35 0,40.97 21.84,90.26 44.94,142.44 31.91,72.07 67.58,152.73 59.32,238.38 -0.08,6.65 2.03,13.87 7.86,18.01 51.3,28.71 73.27,60.87 82.63,84.13 10.06,20.66 16.53,42.81 19.2,65.84 6.68,57.44 -11.26,114.55 -49.28,157.83 -1.48,2.26 -4.06,5.12 -5.49,8.07 -2.05,4.19 -3.74,9.63 -4.47,13.81 l 1.31,15.96 c 0.29,3.62 -1.89,6.99 -5.32,8.21 -3.43,1.22 -7.24,-0.03 -9.29,-3.02 l -6.39,-9.32 c -4.59,-5.15 -13.52,-8.46 -21.02,-7.32 -9.45,1.43 -13.26,8.56 -15.65,11.81 l -5.64,9.36 c -1.9,3.14 -5.67,4.59 -9.18,3.54 -3.51,-1.05 -5.85,-4.35 -5.7,-8.01 l 0.48,-11.78 c 0,-4.21 -2.33,-11.71 -8.04,-16.05 -5.7,-4.33 -14.79,-5.52 -21.7,-3.36 l -11.52,3.65 c -3.55,1.14 -7.44,-0.35 -9.33,-3.57 -1.9,-3.22 -1.32,-7.32 1.39,-9.89 l 6.83,-6.48 c 4.89,-5.61 5.69,-13.53 2.44,-19.11 -3.48,-5.99 -8.59,-10.12 -16.23,-9.99 l -7.61,-0.12 c -3.81,-0.05 -7.06,-2.77 -7.76,-6.52 -0.72,-3.73 1.31,-7.46 4.83,-8.91 l 7.58,-3.11 c 4.49,-3.05 12.18,-11.24 16.16,-17.84 7.27,-12.24 22.75,-34.63 25.09,-43.3 2.39,-8.89 5.08,-17.78 4,-27.16 -1.41,-12.04 -6.75,-23.02 -14.95,-31.33 -6.75,-5.13 -17.34,1.3 -22.53,5.73 -44.01,41.41 -132.74,103.41 -226.41,104.5 -10.13,-0.07 -61.81,-0.96 -78.86,-23.61 -14.1,-18.74 -5.64,-70.25 1.48,-90.54 9.91,-45.82 42.98,-82.18 72.85,-114.32 7.57,-9.39 -1.23,-18.04 -7.29,-22.59 l 0.11,-0.1 c -12.43,-9.52 -28.6,-13.06 -44.24,-9.44 -9.19,2.12 -16.66,7.64 -24.23,12.89 -7.39,5.11 -23.27,27.23 -32.35,38.18 -4.87,5.97 -10.01,15.96 -11.37,21.22 l -0.38,8.18 c -0.18,3.81 -3.01,6.97 -6.77,7.56 -3.76,0.58 -7.42,-1.56 -8.75,-5.13 l -2.66,-7.12 c -2.45,-7.24 -8.05,-10.67 -14.87,-11.94 -6.35,-1.17 -13.54,2.24 -17.18,8.74 l -3.81,8.6 c -1.51,3.42 -5.18,5.35 -8.85,4.64 -3.66,-0.7 -6.36,-3.86 -6.5,-7.59 l -0.43,-12.08 c -0.29,-7.24 -4.45,-15.4 -10.46,-19.31 -6.01,-3.91 -13.86,-3.58 -17.81,-2.18 l -10.94,4.42 c -3.39,1.37 -7.28,0.27 -9.46,-2.68 -2.17,-2.94 -2.07,-7 0.25,-9.83 l 6.92,-8.46 c 2.26,-3.34 7.7,-9.33 5.86,-18.71 -1.45,-7.46 -7.57,-14.74 -13.96,-17.34 l -10.92,-2.89 c -3.51,-0.91 -5.97,-4.09 -5.97,-7.72 0,-3.65 2.44,-6.83 5.95,-7.77 l 15.46,-4.13 c 3.7,-2.1 8.25,-5.52 11.51,-8.86 2.3,-2.34 4.12,-5.74 5.76,-7.88 27.97,-50.37 75.73,-86.46 132.07,-99.48 20.55,-4.75 41.47,-6.3 62.27,-4.63 10.2,0.74 10.77,-8.14 1.89,-18.74 -0.42,-0.5 -0.75,-0.99 -1.04,-1.47 -45,-55.75 -94.62,-119.23 -94.62,-212.97 0,-60.46 16.88,-118.13 49.66,-171.36 l -0.46,0.23 c 5.99,-8.7 5.17,-18.23 -6.25,-23.67 -0.12,-0.05 -0.22,-0.11 -0.34,-0.17 -23.39,-9.5 -39.39,-22.9 -49.89,-34.73 -21.87,-24.62 -32.69,-56.57 -30.5,-89.96 1.42,-21.46 11.64,-38.37 19.2,-49.22 1.84,-2.64 3.62,-4.99 5.27,-7.15 2.98,-5.3 6.41,-23.29 -12.53,-41.49 -2.6,-2.44 -5.2,-4.24 -6.51,-4.74 l -11.96,-3.58 c -3.65,-1.09 -6.02,-4.59 -5.7,-8.39 0.34,-3.79 3.31,-6.83 7.08,-7.26 l 8.14,-0.93 c 5.28,-0.9 13.76,-4.05 16.27,-11.4 2.83,-8.34 1.16,-19.14 -5,-25.51 l -6.66,-5.17 c -2.96,-2.29 -3.94,-6.33 -2.37,-9.72 1.57,-3.38 5.28,-5.24 8.94,-4.47 l 7.54,1.59 c 0.13,0.02 0.26,0.02 0.39,0.06 10.61,3.18 20.47,2.77 27.44,-4.18 6.13,-6.12 11.19,-13.03 10.46,-21.21 l -1.23,-12.19 c 0,-0.02 0,-0.03 0,-0.03 -0.35,-3.63 1.79,-7.05 5.22,-8.31 3.44,-1.26 7.29,-0.04 9.37,2.98 l 5.87,8.54 0,-0.13 c 0.43,0.61 1.11,1.37 2,2.2 2.79,3.98 7.84,14.07 21.69,12.54 7.08,-0.78 14.6,-2.13 18.95,-9.47 l 6.99,-12.73 c 1.13,-2.55 3.57,-4.43 6.55,-4.72 4.39,-0.43 8.31,2.79 8.75,7.19 l 0,0.04 c 0.02,0.23 0.03,0.44 0.04,0.66 l 0.22,12.81 c 0.38,5.1 5.18,18.82 10.82,23.98 0.3,0.26 0.52,0.54 0.73,0.83 3.13,2.85 6.08,5.96 8.81,9.32 10.51,10.5 48.55,50.98 52.41,90.64 0.42,4.39 0.42,8.77 -0.07,13.09 l 0.01,0 c -0.02,0.14 -0.03,0.29 -0.05,0.43 l 0,0.03 c -0.06,0.52 -0.11,1.04 -0.18,1.56 -0.42,3.49 -1.04,6.93 -1.78,10.31 -0.03,0.3 -0.03,0.59 -0.08,0.92 -1.51,8.96 3.3,14.32 8.39,17.84 l 23.24,14.66 c 4.27,2.29 10.57,4.09 15.92,0.14 51.35,-40.35 107.58,-94.92 107.58,-156.11 l 0.54,0 c 0,-9.82 -2.88,-20.28 -9.03,-32.88 -2.94,-5.96 -6.69,-11.73 -11.2,-17.16 -4.69,-5.67 -10.39,-11.21 -16.95,-16.49 -12.87,-10.35 -29.09,-19.83 -48.34,-28.22 -8.87,-3.92 -18.26,-7.58 -28.04,-10.94 l -3.29,-1.14 c -0.69,-0.18 -1.36,-0.39 -2.02,-0.62 l 0,0.01 -10.85,-3.82 c -0.11,-0.03 -0.21,-0.08 -0.32,-0.11 l -0.95,-0.36 c -6.03,-2.23 -12.26,-4.54 -18.18,-7.32 -12.91,-5.82 -24.58,-12.4 -34.78,-19.62 -11.65,-8.34 -21.61,-17.69 -29.54,-27.71 -8.58,-10.74 -15.18,-22.95 -19.06,-35.22 -3.74,-11.69 -5.31,-23.75 -4.67,-35.8 0.52,-10 2.55,-19.93 6.03,-29.53 2.8,-7.72 6.42,-14.971 10.76,-21.561 0.99,-1.59 2.08,-3.168 3.26,-4.731 l 0.65,-0.878 c 0.72,-0.989 1.42,-1.938 2.15,-2.848 0.17,-0.203 0.33,-0.41 0.51,-0.602 0.43,-0.511 0.85,-1.019 1.25,-1.5 1.22,-1.468 2.58,-3.129 4.3,-4.851 1.56,-1.629 3.3,-3.457 5.28,-5.199 l 0.16,-0.141 c 1.37,-1.258 2.91,-2.688 4.7,-4.059 l 0.84,-0.679 c 0.93,-0.762 1.79,-1.43 2.58,-2.032 0.19,-0.14 0.39,-0.277 0.58,-0.429 l 4.21,-2.93 c 3.77,-2.621 8.12,-3.91 12.44,-3.91 5.86,0 11.66,2.359 15.92,6.91 7.39,7.91 7.84,20.059 1.06,28.5 l -2.81,3.5 c -0.23,0.32 -0.48,0.68 -0.73,1.059 l -0.97,1.382 c -0.09,0.141 -0.16,0.239 -0.26,0.379 -0.39,0.551 -0.76,1.2 -1.16,1.891 l -0.26,0.43 c -0.11,0.179 -0.21,0.339 -0.32,0.507 -0.38,0.592 -1.08,1.972 -1.69,3.172 -0.12,0.25 -0.23,0.43 -0.35,0.66 -0.3,0.57 -0.55,1.21 -0.82,1.85 -0.28,0.66 -0.58,1.35 -0.88,2.02 -0.12,0.3 -0.21,0.62 -0.33,0.93 l -0.59,1.64 c -0.22,0.56 -0.37,1.02 -0.46,1.4 -0.08,0.28 -0.16,0.56 -0.25,0.85 -1.38,4.49 -3.33,13.48 -0.93,23.26 1.9,7.86 6.91,14.83 14.24,19.73 4.33,2.97 9.64,5.52 15.63,7.54 6.25,2.07 13.53,3.66 21.64,4.71 0.15,0.02 0.31,0.04 0.47,0.07 2.56,0.39 5.33,0.57 8.26,0.76 1.08,0.07 2.16,0.14 3.24,0.23 l 8.61,0.43 c 0.72,-0.02 1.45,-0.02 2.19,0.02 l 4.91,0.23 c 12.91,0.55 25.84,1.63 38.39,3.2 31.08,3.85 58.71,10.67 84.51,20.85 15.77,6.25 30.71,13.84 44.38,22.54 15.15,9.64 29.2,20.93 41.73,33.55 12.76,12.8 24.24,27.27 34.15,43.02 9.46,15.07 17.51,31.1 23.9,47.62 5.81,14.9 10.58,30.44 14.62,47.53 0.03,0.13 0.06,0.27 0.09,0.4 l 2.34,10.86 c 0.49,2.15 0.85,4.28 1.16,6.17 l 4.02,24.8 c 0.31,1.42 0.48,2.93 0.52,4.5 l 0.38,4.93 c 0.04,0.38 0.06,0.75 0.08,1.13 l 1.54,41.06 c 0.01,0.35 0.02,0.7 0.01,1.04 -0.09,9.79 -0.6,19.58 -1.49,29.11 -6.31,67.38 -36.35,118.82 -69.13,160.7 -3,4.92 -2.22,11.34 -0.71,14.88 l 8.69,11.19 c 3.99,4.74 9.79,9.04 18.59,6.66 0.31,-0.09 0.62,-0.12 0.92,-0.17 3.29,-1.07 6.64,-2.01 10.07,-2.77 0.52,-0.12 1.02,-0.22 1.54,-0.33 l 0,0 c 0.01,-0.01 0.02,-0.01 0.02,-0.01 0.15,-0.02 0.29,-0.06 0.43,-0.08 l 0,0.01 c 4.26,-0.91 8.61,-1.34 13.02,-1.34 39.85,0 83.82,33.94 95.29,43.4 3.6,2.38 6.98,5.02 10.14,7.86 0.3,0.17 0.6,0.38 0.9,0.64 5.67,5.11 19.78,8.56 24.9,8.45 l 0,0 12.77,-1.02 c 0.22,-0.02 0.43,-0.03 0.65,-0.03 0,0 0.03,0 0.05,0 4.43,0.01 8,3.61 8,8.03 0,2.99 -1.63,5.6 -4.06,6.97 l -11.99,8.19 c -6.89,5.04 -7.5,12.65 -7.6,19.77 -0.18,13.93 10.35,17.99 14.58,20.38 0.92,0.8 1.74,1.4 2.39,1.77 l -0.13,0.02 9.06,5.01 c 3.21,1.78 4.8,5.5 3.88,9.04"
           style="fill:#201916;fill-opacity:1;fill-rule:nonzero;stroke:none"
           id="path106" /></g></g></g></svg>